<svg xmlns="http://www.w3.org/2000/svg" viewBox="0 0 48 48" fill="none" stroke="#3a2c0b" stroke-width="2.4" stroke-linecap="round" stroke-linejoin="round"><g transform="translate(25 44) scale(1)" fill="#f7ecd0" stroke-width="2.40"><rect x="-10" y="-4" width="20" height="4"/><path d="M-8-4c-2-8 2-12 2-14-5 0-8-2-8.5-6-.5-4 3-8 9-12l-1-4.5 4.5 3.5c9 0 14 7 14 17 0 6-2 11-3 16z"/><path d="M0-35c8 4 10 12 9 19-.5 4-1.5 8-2 12" stroke-width="1.7"/><circle cx="-5" cy="-27" r="1.4" fill="#3a2c0b" stroke="none"/><path d="M-13.5-21c2 .6 3.5 0 4.5-1" stroke-width="1.6"/></g></svg>
