<svg xmlns="http://www.w3.org/2000/svg" viewBox="0 0 48 48" fill="none" stroke="#3a2c0b" stroke-width="2.4" stroke-linecap="round" stroke-linejoin="round"><g transform="translate(-6 8) scale(0.75)"><g transform="translate(25 44) scale(1)" fill="#f7ecd0" stroke-width="2.40"><rect x="-10" y="-4" width="20" height="4"/><path d="M-8-4c-2-8 2-12 2-14-5 0-8-2-8.5-6-.5-4 3-8 9-12l-1-4.5 4.5 3.5c9 0 14 7 14 17 0 6-2 11-3 16z"/><path d="M0-35c8 4 10 12 9 19-.5 4-1.5 8-2 12" stroke-width="1.7"/><circle cx="-5" cy="-27" r="1.4" fill="#3a2c0b" stroke="none"/><path d="M-13.5-21c2 .6 3.5 0 4.5-1" stroke-width="1.6"/></g></g><g transform="translate(12 24) scale(0.42)"><g transform="translate(24 44) scale(1)" fill="#f7ecd0" stroke-width="2.40"><path d="M-2-31l2-9 2 9z"/><rect x="-5" y="-31" width="10" height="3"/><path d="M-4-28C-12-26-11-18-6.5-15c2.5 1.6 3.5 2.6 3.5 4h6c0-1.4 1-2.4 3.5-4C11-18 12-26 4-28z"/><rect x="-4.5" y="-11" width="9" height="3"/><path d="M-8-3l3.5-5h9l3.5 5z"/><rect x="-11" y="-3" width="22" height="3"/></g></g><g transform="translate(24 0) scale(0.5)"><g transform="translate(24 44) scale(1)" fill="#c63a2e" stroke-width="2.40"><path d="M-2-33l2-7 2 7z"/><rect x="-6" y="-33" width="12" height="3.5"/><path d="M-5-29.5C-15-27.5-14-19-8-15.5c3 1.8 4 3 4 4.5h8c0-1.5 1-2.7 4-4.5 6-3.5 7-12-3-14z"/><rect x="-5" y="-11" width="10" height="3"/><path d="M-9-3l4-5h10l4 5z"/><rect x="-12" y="-3" width="24" height="3"/></g></g></svg>